# xmcd
#
# Track frame offsets:
#	150
#	15931
#	36317
#	52979
#	64569
#	80598
#	94355
#	103420
#	118145
#	139236
#	154995
#	170239
#	184855
#	205661
#	221397
#	237223
#
# Disc length: 3368 seconds
#
# Revision: 1
# Processed by: cddbd v1.5.2PL0 Copyright (c) Steve Scherf et al.
# Submitted via: audiograbber 1.83.01
#
DISCID=e40d2610
DTITLE=Various Artist - All The... Country [Disc 3]
DYEAR=2012
DGENRE=Country
TTITLE0=Blake Shelton - Honey Bee
TTITLE1=Kenny Wayne Shepherd Band - Last Goodbye
TTITLE2=The Doobie Brothers - What A Fool Believes
TTITLE3=Glen Campbell - I Love How You Love Me
TTITLE4=John Rich - Country Done Come To Town
TTITLE5=The Dirt Drifters - Always A Reason
TTITLE6=The Everly Brothers - Crying In The Rain
TTITLE7=Eric Weissberg and Deliverance - Dueling Banjos
TTITLE8=Gary Morris - The Wind Beneath My Wings
TTITLE9=Highway 101 - The Bed You Made For Me
TTITLE10=Harmony James - Pride
TTITLE11=The Forester Sisters - I Fell In Love Again Last Night
TTITLE12=Shawn Camp - Fallin' Never Felt So Good
TTITLE13=Trick Pony - On A Night Like This
TTITLE14=The Wreckers - Leave The Pieces
TTITLE15=The Janedear Girls - Shotgun Girl
EXTD=
EXTT0=
EXTT1=
EXTT2=
EXTT3=
EXTT4=
EXTT5=
EXTT6=
EXTT7=
EXTT8=
EXTT9=
EXTT10=
EXTT11=
EXTT12=
EXTT13=
EXTT14=
EXTT15=
PLAYORDER=
